<svg id="Capa_1" enable-background="new 0 0 512 512" height="512" viewBox="0 0 512 512" width="512" xmlns="http://www.w3.org/2000/svg"><g><g><g><g><g><path d="m436.215 503.465c16.415 0 29.722-13.307 29.722-29.722v-224.869h-59.936v224.377c0 16.687 13.527 30.214 30.214 30.214z" fill="#ffc277"/></g><g><path d="m436.215 480.997c-.023 0-.046 0-.069 0-4.055-.009-7.375-3.354-7.42-7.409-.001-.112-.002-.225-.002-.337v-224.377h-22.723v201.909 22.468c0 16.687 13.527 30.214 30.214 30.214.506 0 1.008-.013 1.507-.038.273-.014.543-.04.814-.061.221-.017.444-.029.665-.051.365-.036.725-.086 1.085-.135.122-.017.246-.028.368-.047.421-.063.839-.139 1.254-.219.056-.011.114-.019.17-.031.453-.091.902-.193 1.347-.304.017-.004.035-.008.052-.012 1.389-.349 2.737-.797 4.04-1.333.004-.001.008-.003.011-.004 10.801-4.451 18.407-15.079 18.407-27.487v-22.468c.002 16.415-13.305 29.722-29.72 29.722z" fill="#ff905b"/></g><g><path d="m353.467 8.529h-247.498v195.322h29.759l44.022 45.023h226.251l.493 209.679h29.721v-367.553z" fill="#d3e0ef"/></g><g><path d="m429.089 435.191-.492-209.678h-239.259l-44.023-45.024h-16.75v-171.96h-22.596v195.322h29.759l44.022 45.023h226.251l.493 209.679h29.721v-23.362z" fill="#9bb6f1"/></g><g><path d="m406.001 473.744v-225.273h-359.938v224.994c0 16.569 13.431 30 30 30h359.66.492c-16.414 0-30.214-13.307-30.214-29.721z" fill="#fbf2e2"/></g><g><path d="m406.726 481.155c-.953-.015-330.737.029-331.611-.015-3.615-.115-6.607-3-6.614-6.614-.043-.033.031-225.01 0-225.054h-22.438c.006 14.018-.005 217.192 0 224.996 0 16.567 13.431 29.998 30 29.998h22.439 337.714c-14.214 0-26.458-9.979-29.49-23.311z" fill="#f7e0ba"/></g><g><path d="m135.728 203.851h-89.665v44.62l133.687.403z" fill="#ffc277"/></g><g><path d="m69.221 225.96v-22.109h-23.158v44.62l133.687.403-22.145-22.648z" fill="#ff905b"/></g><g><path d="m353.467 8.529v82.471h82.748z" fill="#6de89a"/></g><g><path d="m375.488 68.979v-38.502l-22.021-21.948v82.471h82.748l-22.095-22.021z" fill="#2ce079"/></g><g><path d="m128.565 31h15v15h-15z" fill="#fff"/></g><g><path d="m158.098 31h15v15h-15z" fill="#fff"/></g><g><path d="m68.82 271h15v15h-15z" fill="#fff"/></g><g><path d="m98.469 271h15v15h-15z" fill="#fff"/></g></g></g></g><g><path d="m338.48 496.998h15.002v15.002h-15.002z"/><path d="m473.474 285.952v-44.633h-29.727v-154.448l-87.164-86.871h-258.14v74.983h15.002v-59.981h232.537v82.484h82.763v354.591h-15.217v-211.162h-231.029l-43.635-44.628h-25.419v-106.301h-15.002v106.302h-59.917v278.206c0 20.681 16.825 37.506 37.506 37.506h247.445v-15.003h-247.444c-12.408 0-22.504-10.095-22.504-22.504v-218.575h344.996v218.854c0 8.324 2.782 16.019 7.478 22.226h-37.517v15.002h67.76c20.528 0 37.228-16.701 37.228-37.228v-173.818h-15.003v173.817c0 12.255-9.97 22.226-22.225 22.226-12.315 0-22.719-10.178-22.719-22.226v-7.691h30.22v-210.759h14.724v29.63h15.003zm-419.945-74.662h79.022l28.967 29.625h-107.989zm307.455-185.722 57.109 56.916h-57.109z"/></g></g></svg>